<?xml version="1.0" encoding="UTF-8" standalone="no"?>
<svg
   xmlns:dc="http://purl.org/dc/elements/1.1/"
   xmlns:cc="http://creativecommons.org/ns#"
   xmlns:rdf="http://www.w3.org/1999/02/22-rdf-syntax-ns#"
   xmlns:svg="http://www.w3.org/2000/svg"
   xmlns="http://www.w3.org/2000/svg"
   xmlns:sodipodi="http://sodipodi.sourceforge.net/DTD/sodipodi-0.dtd"
   xmlns:inkscape="http://www.inkscape.org/namespaces/inkscape"
   width="321.46875mm"
   height="64.822914mm"
   viewBox="0 0 321.46875 64.822914"
   version="1.1"
   id="svg8"
   inkscape:version="1.0.1 (c497b03c, 2020-09-10)"
   sodipodi:docname="git4.svg">
  <defs
     id="defs2">
    <inkscape:path-effect
       effect="spiro"
       id="path-effect1097"
       is_visible="true"
       lpeversion="0" />
    <inkscape:path-effect
       effect="bspline"
       id="path-effect1005"
       is_visible="true"
       weight="33.333333"
       steps="2"
       helper_size="0"
       apply_no_weight="true"
       apply_with_weight="true"
       only_selected="false"
       lpeversion="0" />
    <inkscape:path-effect
       effect="bspline"
       id="path-effect1001"
       is_visible="true"
       weight="33.333333"
       steps="2"
       helper_size="0"
       apply_no_weight="true"
       apply_with_weight="true"
       only_selected="false"
       lpeversion="0" />
    <inkscape:path-effect
       effect="bspline"
       id="path-effect994"
       is_visible="true"
       weight="33.333333"
       steps="2"
       helper_size="0"
       apply_no_weight="true"
       apply_with_weight="true"
       only_selected="false"
       lpeversion="0" />
    <inkscape:path-effect
       only_selected="false"
       apply_with_weight="true"
       apply_no_weight="true"
       helper_size="0"
       steps="2"
       weight="33.333333"
       is_visible="true"
       id="path-effect1000"
       effect="bspline"
       lpeversion="0" />
    <inkscape:path-effect
       effect="bspline"
       id="path-effect996"
       is_visible="true"
       weight="33.333333"
       steps="2"
       helper_size="0"
       apply_no_weight="true"
       apply_with_weight="true"
       only_selected="false"
       lpeversion="0" />
    <inkscape:path-effect
       effect="bspline"
       id="path-effect992"
       is_visible="true"
       weight="33.333333"
       steps="2"
       helper_size="0"
       apply_no_weight="true"
       apply_with_weight="true"
       only_selected="false"
       lpeversion="0" />
    <inkscape:path-effect
       effect="bspline"
       id="path-effect984"
       is_visible="true"
       weight="33.333333"
       steps="2"
       helper_size="0"
       apply_no_weight="true"
       apply_with_weight="true"
       only_selected="false"
       lpeversion="0" />
    <inkscape:path-effect
       effect="bspline"
       id="path-effect973"
       is_visible="true"
       weight="33.333333"
       steps="2"
       helper_size="0"
       apply_no_weight="true"
       apply_with_weight="true"
       only_selected="false"
       lpeversion="0" />
    <inkscape:path-effect
       only_selected="false"
       apply_with_weight="true"
       apply_no_weight="true"
       helper_size="0"
       steps="2"
       weight="33.333333"
       is_visible="true"
       id="path-effect968"
       effect="bspline"
       lpeversion="0" />
    <inkscape:path-effect
       only_selected="false"
       apply_with_weight="true"
       apply_no_weight="true"
       helper_size="0"
       steps="2"
       weight="33.333333"
       is_visible="true"
       id="path-effect962"
       effect="bspline"
       lpeversion="0" />
    <inkscape:path-effect
       only_selected="false"
       apply_with_weight="true"
       apply_no_weight="true"
       helper_size="0"
       steps="2"
       weight="33.333333"
       is_visible="true"
       id="path-effect955"
       effect="bspline"
       lpeversion="0" />
    <inkscape:path-effect
       only_selected="false"
       apply_with_weight="true"
       apply_no_weight="true"
       helper_size="0"
       steps="2"
       weight="33.333333"
       is_visible="true"
       id="path-effect951"
       effect="bspline"
       lpeversion="0" />
    <inkscape:path-effect
       effect="bspline"
       id="path-effect947"
       is_visible="true"
       weight="33.333333"
       steps="2"
       helper_size="0"
       apply_no_weight="true"
       apply_with_weight="true"
       only_selected="false"
       lpeversion="0" />
    <inkscape:path-effect
       effect="bspline"
       id="path-effect942"
       is_visible="true"
       weight="33.333333"
       steps="2"
       helper_size="0"
       apply_no_weight="true"
       apply_with_weight="true"
       only_selected="false"
       lpeversion="0" />
    <inkscape:path-effect
       effect="bspline"
       id="path-effect938"
       is_visible="true"
       weight="33.333333"
       steps="2"
       helper_size="0"
       apply_no_weight="true"
       apply_with_weight="true"
       only_selected="false"
       lpeversion="0" />
    <inkscape:path-effect
       effect="spiro"
       id="path-effect934"
       is_visible="true"
       lpeversion="0" />
    <inkscape:path-effect
       is_visible="true"
       id="path-effect929"
       effect="spiro"
       lpeversion="0" />
    <inkscape:path-effect
       only_selected="false"
       apply_with_weight="true"
       apply_no_weight="true"
       helper_size="0"
       steps="2"
       weight="33.333333"
       is_visible="true"
       id="path-effect925"
       effect="bspline"
       lpeversion="0" />
    <inkscape:path-effect
       effect="bspline"
       id="path-effect1023"
       is_visible="true"
       weight="33.333333"
       steps="2"
       helper_size="0"
       apply_no_weight="true"
       apply_with_weight="true"
       only_selected="false"
       lpeversion="0" />
    <inkscape:path-effect
       effect="spiro"
       id="path-effect1019"
       is_visible="true"
       lpeversion="0" />
    <inkscape:path-effect
       effect="spiro"
       id="path-effect1007"
       is_visible="true"
       lpeversion="0" />
    <inkscape:path-effect
       effect="spiro"
       id="path-effect1003"
       is_visible="true"
       lpeversion="0" />
    <inkscape:path-effect
       effect="bspline"
       id="path-effect961"
       is_visible="true"
       weight="33.333333"
       steps="2"
       helper_size="0"
       apply_no_weight="true"
       apply_with_weight="true"
       only_selected="false"
       lpeversion="0" />
    <inkscape:path-effect
       effect="bspline"
       id="path-effect957"
       is_visible="true"
       weight="33.333333"
       steps="2"
       helper_size="0"
       apply_no_weight="true"
       apply_with_weight="true"
       only_selected="false"
       lpeversion="0" />
    <inkscape:path-effect
       effect="spiro"
       id="path-effect953"
       is_visible="true"
       lpeversion="0" />
    <inkscape:path-effect
       effect="spiro"
       id="path-effect949"
       is_visible="true"
       lpeversion="0" />
    <inkscape:path-effect
       is_visible="true"
       id="path-effect945"
       effect="spiro"
       lpeversion="0" />
    <inkscape:path-effect
       effect="spiro"
       id="path-effect941"
       is_visible="true"
       lpeversion="0" />
    <inkscape:path-effect
       effect="spiro"
       id="path-effect937"
       is_visible="true"
       lpeversion="0" />
    <inkscape:path-effect
       effect="spiro"
       id="path-effect933"
       is_visible="true"
       lpeversion="0" />
    <inkscape:path-effect
       effect="bspline"
       id="path-effect928"
       is_visible="true"
       weight="33.333333"
       steps="2"
       helper_size="0"
       apply_no_weight="true"
       apply_with_weight="true"
       only_selected="false"
       lpeversion="0" />
    <inkscape:path-effect
       effect="bspline"
       id="path-effect924"
       is_visible="true"
       weight="33.333333"
       steps="2"
       helper_size="0"
       apply_no_weight="true"
       apply_with_weight="true"
       only_selected="false"
       lpeversion="0" />
    <inkscape:path-effect
       only_selected="false"
       apply_with_weight="true"
       apply_no_weight="true"
       helper_size="0"
       steps="2"
       weight="33.333333"
       is_visible="true"
       id="path-effect920"
       effect="bspline"
       lpeversion="0" />
    <inkscape:path-effect
       effect="bspline"
       id="path-effect916"
       is_visible="true"
       weight="33.333333"
       steps="2"
       helper_size="0"
       apply_no_weight="true"
       apply_with_weight="true"
       only_selected="false"
       lpeversion="0" />
    <inkscape:path-effect
       effect="bspline"
       id="path-effect909"
       is_visible="true"
       weight="33.333333"
       steps="2"
       helper_size="0"
       apply_no_weight="true"
       apply_with_weight="true"
       only_selected="false"
       lpeversion="0" />
    <inkscape:path-effect
       effect="bspline"
       id="path-effect905"
       is_visible="true"
       weight="33.333333"
       steps="2"
       helper_size="0"
       apply_no_weight="true"
       apply_with_weight="true"
       only_selected="false"
       lpeversion="0" />
    <inkscape:path-effect
       effect="bspline"
       id="path-effect901"
       is_visible="true"
       weight="33.333333"
       steps="2"
       helper_size="0"
       apply_no_weight="true"
       apply_with_weight="true"
       only_selected="false"
       lpeversion="0" />
    <inkscape:path-effect
       effect="bspline"
       id="path-effect897"
       is_visible="true"
       weight="33.333333"
       steps="2"
       helper_size="0"
       apply_no_weight="true"
       apply_with_weight="true"
       only_selected="false"
       lpeversion="0" />
    <inkscape:path-effect
       effect="bspline"
       id="path-effect893"
       is_visible="true"
       weight="33.333333"
       steps="2"
       helper_size="0"
       apply_no_weight="true"
       apply_with_weight="true"
       only_selected="false"
       lpeversion="0" />
  </defs>
  <sodipodi:namedview
     id="base"
     pagecolor="#ffffff"
     bordercolor="#666666"
     borderopacity="1.0"
     inkscape:pageopacity="0.0"
     inkscape:pageshadow="2"
     inkscape:zoom="1.0218084"
     inkscape:cx="900.84083"
     inkscape:cy="289.70073"
     inkscape:document-units="mm"
     inkscape:current-layer="layer1"
     showgrid="false"
     showguides="false"
     inkscape:window-width="3440"
     inkscape:window-height="1287"
     inkscape:window-x="160"
     inkscape:window-y="30"
     inkscape:window-maximized="0"
     fit-margin-top="0"
     fit-margin-left="0"
     fit-margin-right="0"
     fit-margin-bottom="0"
     inkscape:document-rotation="0" />
  <metadata
     id="metadata5">
    <rdf:RDF>
      <cc:Work
         rdf:about="">
        <dc:format>image/svg+xml</dc:format>
        <dc:type
           rdf:resource="http://purl.org/dc/dcmitype/StillImage" />
        <dc:title />
      </cc:Work>
    </rdf:RDF>
  </metadata>
  <g
     inkscape:label="Layer 1"
     inkscape:groupmode="layer"
     id="layer1"
     transform="translate(-23.05162,-23.061239)">
    <rect
       style="fill:none;fill-rule:evenodd;stroke-width:0.429679"
       id="rect888"
       width="321.46875"
       height="64.822914"
       x="23.05162"
       y="23.061239" />
    <text
       xml:space="preserve"
       style="font-style:normal;font-weight:normal;font-size:10.5833px;line-height:125%;font-family:sans-serif;letter-spacing:0px;word-spacing:0px;fill:#000000;fill-opacity:1;stroke:none;stroke-width:0.264583px;stroke-linecap:butt;stroke-linejoin:miter;stroke-opacity:1"
       x="77.526115"
       y="-102.50107"
       id="text1011" />
    <g
       id="g899"
       transform="translate(-250.23811,-89.523209)">
      <path
         style="fill:#00ff66;fill-opacity:1;fill-rule:evenodd;stroke:#000000;stroke-width:0.995294;stroke-linecap:butt;stroke-linejoin:miter;stroke-miterlimit:4;stroke-dasharray:none;stroke-opacity:1"
         d="m 470.36953,114.03838 c 3.01683,-0.19305 6.69325,0.40636 8.479,5.90793 1.78574,5.50158 1.68059,15.90523 1.79792,22.97265 0.11734,7.06742 0.45779,10.80519 3.67061,12.57817 3.21281,1.77299 9.29763,1.58439 13.52407,1.91241 4.22645,0.32802 6.59447,1.17267 8.10622,2.88892 1.51175,1.71625 2.1674,4.30427 1.96613,6.9374 -0.20127,2.63313 -1.25951,5.31127 -5.68179,6.87682 -4.42229,1.56556 -12.20755,2.01819 -19.06749,1.82959 -6.85994,-0.1886 -12.79367,-1.01845 -16.07894,-3.37666 -3.28527,-2.35822 -3.93379,-6.3179 -4.42512,-13.42824 -0.49133,-7.11034 -0.8315,-17.40866 -0.8084,-25.11329 0.0231,-7.70463 0.40418,-12.74599 1.77428,-15.77644 1.3701,-3.03046 3.72668,-4.01621 6.74351,-4.20926 z"
         id="path982"
         inkscape:connector-curvature="0"
         inkscape:path-effect="#path-effect984"
         inkscape:original-d="m 469.70907,113.24577 c 3.67734,0.59926 7.35376,1.19868 11.03036,1.79842 -0.1049,10.4037 -0.21005,20.80735 -0.31547,31.21127 0.30253,3.73432 0.68046,7.46867 1.02045,11.20328 6.08546,-0.18878 12.17027,-0.37739 18.25516,-0.56582 2.36812,0.84432 4.73614,1.68898 7.10391,2.53388 0.65594,2.58783 1.31158,5.17585 1.96695,7.76409 -1.05813,2.67814 -2.11637,5.35627 -3.17481,8.03467 -7.78623,0.45253 -15.57149,0.90516 -23.3575,1.35798 -5.93383,-0.83005 -11.86756,-1.65992 -17.80159,-2.48961 -0.64238,-3.88558 -1.28488,-7.84625 -1.92756,-11.76911 -0.33999,-10.2978 -0.68016,-20.59612 -1.02049,-30.89391 0.38661,-5.11144 0.76768,-10.1528 1.15107,-15.22798 2.35651,-0.98588 4.71309,-1.97163 7.06952,-2.95716 z"
         sodipodi:nodetypes="cccccccccccccc" />
      <path
         id="path1006"
         style="fill:#00ff66;fill-opacity:1;fill-rule:evenodd;stroke:#000000;stroke-width:0.996247;stroke-linecap:butt;stroke-linejoin:round;stroke-miterlimit:4;stroke-dasharray:none;stroke-opacity:1"
         d="m 498.91536,125.6997 v 5.1e-4 c -3.11985,0.0662 -6.39144,1.47415 -8.65265,4.05785 -4.25636,4.86343 -4.93299,13.89327 -3.70725,18.74837 0.76973,4.58151 6.9077,5.90039 6.20415,2.65135 0,0 -0.87047,-7.85168 1.4657,-5.94005 2.37897,1.15767 5.38477,0.64808 6.94396,-0.34544 0.15956,1.84855 0.66826,3.52202 1.14446,4.80073 1.14414,3.07235 3.75365,3.22054 5.31093,-1.6289 1.55729,-4.84944 2.06214,-14.69671 -1.60369,-19.27195 -1.71833,-2.14464 -4.35278,-3.1308 -7.10561,-3.07247 z m -0.55189,8.06524 c 0.70759,-0.0284 1.35194,0.63676 1.75298,1.99186 0.32164,1.08677 0.47711,2.60691 0.60698,4.2437 -1.33664,-0.85116 -3.45267,-1.5404 -5.21003,-0.36244 -0.17783,0.0598 -0.33784,0.13388 -0.48805,0.21519 0.28815,-1.23126 0.59059,-2.38276 0.95037,-3.31392 0.70283,-1.81896 1.58585,-2.7422 2.38775,-2.77439 z" />
      <path
         style="fill:#00ff66;fill-opacity:1;fill-rule:evenodd;stroke:#000000;stroke-width:0.996247;stroke-linecap:butt;stroke-linejoin:round;stroke-miterlimit:4;stroke-dasharray:none;stroke-opacity:1"
         d="m 550.24336,162.1382 c 2.7393,-8.53019 3.6275,-25.85132 -2.82068,-33.89917 -6.44819,-8.04785 -20.2323,-6.82206 -27.71923,1.73272 -7.48694,8.55477 -8.67715,24.43907 -6.52107,32.97923 2.15609,8.54016 7.65824,9.73704 9.90229,4.85716 2.24406,-4.87987 1.25039,-15.60302 4.19272,-21.05497 2.94233,-5.45194 9.52523,-5.18033 12.04797,-0.28939 2.52275,4.89094 0.76737,14.25343 2.17802,19.09884 1.41065,4.84541 6.00068,5.10576 8.73998,-3.42442 z"
         id="path992"
         inkscape:connector-curvature="0"
         inkscape:path-effect="#path-effect994"
         inkscape:original-d="m 552.09448,170.92875 c 0.88773,-17.32076 1.77594,-34.64189 2.6646,-51.96341 -13.78455,1.22626 -27.56866,2.45206 -41.3524,3.67739 -1.19059,15.88376 -2.38081,31.76806 -3.57052,47.65149 5.50219,1.19745 11.00434,2.39434 16.5079,3.59097 -1.01505,-10.95695 -2.00871,-21.6801 -3.04588,-32.86955 6.92155,0.28531 13.50445,0.55693 20.33113,0.83887 -1.78099,9.50025 -3.53637,18.86274 -5.30471,28.29321 4.5894,0.26081 9.17943,0.52115 13.76988,0.78103 z"
         sodipodi:nodetypes="ccccccccc" />
      <path
         style="fill:#00ff66;fill-opacity:1;fill-rule:evenodd;stroke:#000000;stroke-width:0.996247;stroke-linecap:butt;stroke-linejoin:miter;stroke-miterlimit:4;stroke-dasharray:none;stroke-opacity:1"
         d="m 561.99524,121.8983 c 5.53307,1.12503 16.41677,3.67875 22.80092,8.8468 6.38416,5.16806 8.26908,12.95096 8.51234,20.0041 0.24325,7.05314 -1.15518,13.37648 -6.53634,17.38963 -5.38116,4.01315 -14.74433,5.71554 -20.15599,5.19865 -5.41166,-0.51689 -6.87087,-3.25292 -7.96384,-12.25162 -1.09297,-8.99869 -1.82552,-24.3822 -2.09904,-32.19539 -0.27352,-7.81319 -0.0911,-8.1172 5.44195,-6.99217 z"
         id="path1003"
         inkscape:connector-curvature="0"
         inkscape:path-effect="#path-effect1005"
         inkscape:original-d="m 556.64439,120.46956 c 10.88399,2.55346 21.76769,5.10717 32.65111,7.66116 1.88513,7.78236 3.77006,15.56526 5.65468,23.34827 -1.39824,6.32339 -2.79666,12.64673 -4.19539,18.97048 -9.36383,1.7023 -18.727,3.4047 -28.09091,5.10744 -1.45906,-2.73648 -2.91827,-5.47252 -4.37779,-8.20838 -0.72935,-15.26124 -1.45899,-30.64488 -2.1889,-45.96692 0.18266,-0.30428 0.36507,-0.60829 0.5472,-0.91205 z" />
      <path
         style="fill:#55ddff;fill-opacity:1;fill-rule:evenodd;stroke:#000000;stroke-width:1.08682;stroke-linecap:butt;stroke-linejoin:round;stroke-miterlimit:4;stroke-dasharray:none;stroke-opacity:1"
         d="m 295.39122,114.13773 c 18.1916,-1.06689 -30.69252,9.62361 47.7523,1.5312 0.19805,-0.0204 2.57074,-0.33556 5.52967,-0.63409 11.33797,-2.25619 3.30045,25.0123 4.6885,22.47834 l -23.00592,-1.02979 c 1.0272,12.626 1.41724,26.69607 -0.88351,35.01216 -4.91058,1.44991 -12.9559,7.1315 -19.87883,2.91767 2.01362,-20.16216 0.99108,-25.95693 -1.61974,-36.72842 -13.89078,2.24858 -18.10831,1.27086 -23.41284,-2.91768 -24.34631,-20.22751 3.40199,-19.61057 10.83037,-20.62939 z"
         id="path920"
         inkscape:connector-curvature="0"
         sodipodi:nodetypes="cscccccccc" />
      <path
         sodipodi:nodetypes="ccccccccc"
         inkscape:original-d="m 336.15121,142.64525 c -0.51495,10.04724 -1.03017,20.09472 -1.54565,30.14241 7.99599,-0.71131 15.99174,-1.42237 23.98728,-2.13314 0.69063,-9.2137 1.38104,-18.4277 2.07115,-27.6412 -3.19165,-0.69461 -6.38329,-1.3889 -9.57574,-2.08302 -0.583,6.58029 -1.15379,13.02015 -1.74965,19.74001 -2.10414,0.26704 -4.10641,0.5214 -6.18208,0.78531 0.33001,-6.16305 0.65507,-12.23861 0.98218,-18.35733 -2.66217,-0.15129 -5.32471,-0.3023 -7.98749,-0.45304 z"
         inkscape:path-effect="#path-effect925"
         inkscape:connector-curvature="0"
         id="path922"
         d="m 337.22499,147.74438 c -1.58898,4.9481 -2.1042,14.99558 1.63619,19.66389 3.74039,4.66832 11.73614,3.95728 16.07909,-1.0051 4.34295,-4.96237 5.03336,-14.17637 3.78268,-19.13026 -1.25068,-4.95389 -4.44232,-5.64817 -6.33013,-2.70525 -1.88781,2.94291 -2.45861,9.38277 -3.80847,12.87635 -1.34986,3.49359 -3.35213,3.74793 -4.22511,0.79824 -0.87297,-2.94969 -0.54791,-9.02525 -1.71532,-12.1601 -1.16741,-3.13486 -3.82995,-3.28587 -5.41893,1.66223 z"
         style="fill:#55ddff;fill-opacity:1;fill-rule:evenodd;stroke:#000000;stroke-width:1.01652;stroke-linecap:butt;stroke-linejoin:round;stroke-miterlimit:4;stroke-dasharray:none;stroke-opacity:1" />
      <path
         style="fill:#55ddff;fill-opacity:1;fill-rule:evenodd;stroke:#000000;stroke-width:1.01652;stroke-linecap:butt;stroke-linejoin:miter;stroke-miterlimit:4;stroke-dasharray:none;stroke-opacity:1"
         d="m 391.34514,122.56254 c 1.94613,-2.14774 4.68578,-3.55961 7.56425,-3.8982 2.87847,-0.3386 5.87095,0.39899 8.26235,2.03651 2.3914,1.63752 4.16109,4.16084 4.88619,6.96699 0.72509,2.80615 0.39934,5.87093 -0.89942,8.46197 -0.52458,1.04653 -1.21275,2.05158 -1.37398,3.21107 -0.12282,0.88328 0.0788,1.79379 0.47771,2.59137 0.39893,0.79758 0.98753,1.48871 1.64755,2.08841 1.32005,1.1994 2.92244,2.04666 4.29108,3.1903 2.25844,1.88715 3.82336,4.58726 4.33482,7.48558 0.51146,2.89833 -0.0352,5.97215 -1.51756,8.5147 -1.48233,2.54255 -3.88907,4.53318 -6.66565,5.50912 -2.77658,0.97595 -5.90075,0.92867 -8.64532,-0.13398 -1.96898,-0.76236 -3.72997,-2.02729 -5.14939,-3.59041 -1.41941,-1.56312 -2.50156,-3.41954 -3.24855,-5.39441 -0.76153,-2.01331 -1.17822,-4.14433 -1.40126,-6.28526 -0.46747,-4.48722 -0.0959,-9.01271 0.0706,-13.52113 0.16651,-4.50843 0.11742,-9.09599 -1.15608,-13.42402 -0.38483,-1.30785 -0.87958,-2.58334 -1.47732,-3.80861 z"
         id="path932"
         inkscape:connector-curvature="0"
         inkscape:path-effect="#path-effect934"
         inkscape:original-d="m 391.34514,122.56254 c 0,0 12.78205,9.5073 19.81337,13.56727 7.03133,4.05996 -0.48858,1.67772 -1.37398,3.21107 -0.8854,1.53337 5.02533,5.46002 6.41634,7.87008 1.39104,2.41005 -12.49371,14.17803 -12.49371,21.37542 -2.7e-4,8.05087 -2.0389,-5.31385 -8.39794,-8.98482 -6.35904,-3.67097 -1.07628,-4.15485 -1.40126,-6.28526 -0.32498,-2.13041 -0.86578,-17.71454 -1.0855,-26.94515 -0.21971,-9.23061 -1.47732,-3.80861 -1.47732,-3.80861 z"
         sodipodi:nodetypes="cscccsssc" />
      <path
         style="fill:#55ddff;fill-opacity:1;fill-rule:evenodd;stroke:#000000;stroke-width:0.896739;stroke-linecap:butt;stroke-linejoin:round;stroke-miterlimit:4;stroke-dasharray:none;stroke-opacity:1"
         d="m 451.28931,116.16767 c -1.31549,-0.0628 -2.63437,0.73629 -3.66411,2.34158 -2.53479,3.95148 -3.30119,12.59867 -5.11366,17.28954 -1.81246,4.69087 -4.50082,5.03244 -5.67297,1.07184 -1.17216,-3.96058 -0.73563,-12.11831 -2.30311,-16.32752 -1.56748,-4.2092 -5.14234,-5.72562 -7.27589,0.91824 -2.13352,6.64387 -2.8257,19.14948 1.3756,25.0893 1.89487,2.80932 3.32244,3.81066 5.76618,5.21471 2.93182,1.66397 1.31534,4.78348 -0.71867,5.54925 -7.14654,3.03506 -9.17515,3.71206 -11.19471,6.71555 -2.01952,3.0035 0.0703,9.19556 4.48226,10.2406 4.41194,1.04502 13.93179,-2.82473 19.62065,-9.98431 5.3079,-6.68017 6.43227,-13.3964 8.60779,-21.57035 1.97636,-8.24146 2.19088,-15.5651 0.92625,-20.57424 -0.99709,-3.94942 -2.91295,-5.88249 -4.83561,-5.97419 z"
         id="path949"
         inkscape:connector-curvature="0"
         sodipodi:nodetypes="scscccccccccccs" />
      <path
         style="fill:#55ddff;fill-opacity:1;fill-rule:evenodd;stroke:#000000;stroke-width:1.01652;stroke-linecap:butt;stroke-linejoin:miter;stroke-miterlimit:4;stroke-dasharray:none;stroke-opacity:1"
         d="m 360.67777,122.56254 c 1.94613,-2.14774 4.68578,-3.55961 7.56425,-3.8982 2.87847,-0.3386 5.87095,0.39899 8.26235,2.03651 2.3914,1.63752 4.16109,4.16084 4.88619,6.96699 0.72509,2.80615 0.39934,5.87093 -0.89942,8.46197 -0.52458,1.04653 -1.21275,2.05158 -1.37398,3.21107 -0.12282,0.88328 0.0788,1.79379 0.47771,2.59137 0.39893,0.79758 0.98753,1.48871 1.64755,2.08841 1.32005,1.1994 2.92244,2.04666 4.29108,3.1903 2.25844,1.88715 3.82336,4.58726 4.33482,7.48558 0.51146,2.89833 -0.0352,5.97215 -1.51756,8.5147 -1.48233,2.54255 -3.88907,4.53318 -6.66565,5.50912 -2.77658,0.97595 -5.90075,0.92867 -8.64532,-0.13398 -1.96898,-0.76236 -3.72997,-2.02729 -5.14939,-3.59041 -1.41941,-1.56312 -2.50156,-3.41954 -3.24855,-5.39441 -0.76153,-2.01331 -1.17822,-4.14433 -1.40126,-6.28526 -0.46747,-4.48722 -0.0959,-9.01271 0.0706,-13.52113 0.16651,-4.50843 0.11743,-9.09599 -1.15608,-13.42402 -0.38483,-1.30785 -0.87959,-2.58334 -1.47733,-3.80861 z"
         id="path1095"
         inkscape:connector-curvature="0"
         inkscape:path-effect="#path-effect1097"
         inkscape:original-d="m 360.67777,122.56254 c 0,0 12.78205,9.5073 19.81337,13.56727 7.03133,4.05996 -0.48857,1.67772 -1.37398,3.21107 -0.88539,1.53337 5.02532,5.46002 6.41634,7.87008 1.39104,2.41005 -12.49371,14.17803 -12.49371,21.37542 -2.6e-4,8.05087 -2.0389,-5.31385 -8.39794,-8.98482 -6.35904,-3.67097 -1.07628,-4.15485 -1.40126,-6.28526 -0.32498,-2.13041 -0.86578,-17.71454 -1.08549,-26.94515 -0.21972,-9.23061 -1.47733,-3.80861 -1.47733,-3.80861 z"
         sodipodi:nodetypes="cscccsssc" />
    </g>
  </g>
</svg>
